<svg xmlns="http://www.w3.org/2000/svg" viewBox="-10 -10 220 220" width="256" height="256"><defs><mask id="h1"><rect x="-10" y="-10" width="220" height="220" fill="white"/><circle cx="100" cy="100" r="32.8" fill="black"/></mask></defs><path d="M47.20,163.54 C46.59,163.62 45.98,164.09 45.45,164.48 C44.91,164.87 44.46,165.39 43.98,165.85 C43.50,166.32 43.03,166.80 42.56,167.27 C42.09,167.74 41.61,168.21 41.14,168.69 C40.68,169.17 40.10,169.61 39.78,170.16 C39.45,170.71 39.11,171.42 39.19,172.00 C39.28,172.58 39.85,173.16 40.29,173.66 C40.72,174.15 41.29,174.54 41.81,174.96 C42.33,175.38 42.87,175.78 43.39,176.20 C43.92,176.61 44.43,177.04 44.97,177.44 C45.50,177.84 46.06,178.22 46.59,178.62 C47.13,179.01 47.65,179.44 48.19,179.83 C48.74,180.22 49.30,180.59 49.85,180.96 C50.41,181.33 50.97,181.70 51.53,182.06 C52.10,182.42 52.67,182.77 53.24,183.12 C53.81,183.46 54.39,183.80 54.98,184.12 C55.56,184.45 56.16,184.76 56.74,185.08 C57.33,185.41 57.90,185.76 58.49,186.06 C59.09,186.37 59.70,186.65 60.30,186.93 C60.91,187.21 61.53,187.47 62.14,187.75 C62.75,188.03 63.34,188.33 63.95,188.60 C64.56,188.88 65.18,189.13 65.80,189.38 C66.42,189.64 67.05,189.88 67.67,190.12 C68.29,190.36 68.92,190.61 69.55,190.84 C70.18,191.06 70.81,191.27 71.45,191.49 C72.08,191.70 72.71,191.92 73.35,192.13 C73.99,192.33 74.63,192.53 75.27,192.71 C75.92,192.89 76.57,193.05 77.22,193.21 C77.86,193.38 78.51,193.54 79.16,193.69 C79.82,193.84 80.47,194.00 81.13,194.13 C81.78,194.25 82.44,194.39 83.11,194.44 C83.77,194.49 84.46,194.54 85.11,194.42 C85.76,194.30 86.42,194.07 86.99,193.75 C87.55,193.42 88.06,192.94 88.52,192.46 C88.98,191.98 89.39,191.44 89.77,190.89 C90.16,190.35 90.50,189.77 90.83,189.19 C91.15,188.60 91.45,188.00 91.70,187.38 C91.96,186.76 92.25,186.13 92.37,185.49 C92.49,184.84 92.70,184.01 92.42,183.52 C92.15,183.03 91.35,182.79 90.74,182.57 C90.13,182.35 89.42,182.33 88.76,182.21 C88.11,182.09 87.45,181.98 86.79,181.85 C86.13,181.72 85.48,181.57 84.83,181.42 C84.17,181.28 83.52,181.13 82.87,180.98 C82.22,180.83 81.57,180.66 80.92,180.49 C80.27,180.32 79.63,180.14 78.99,179.95 C78.35,179.77 77.71,179.56 77.07,179.36 C76.43,179.15 75.80,178.94 75.17,178.72 C74.53,178.51 73.90,178.30 73.27,178.07 C72.64,177.84 72.01,177.60 71.39,177.35 C70.77,177.10 70.15,176.84 69.54,176.57 C68.93,176.29 68.34,175.98 67.73,175.70 C67.12,175.42 66.50,175.17 65.90,174.89 C65.29,174.61 64.69,174.31 64.10,174.00 C63.51,173.68 62.93,173.34 62.35,173.00 C61.77,172.67 61.19,172.34 60.61,172.00 C60.03,171.67 59.46,171.32 58.89,170.98 C58.31,170.63 57.74,170.29 57.17,169.93 C56.61,169.58 56.04,169.21 55.50,168.83 C54.95,168.44 54.41,168.04 53.88,167.64 C53.34,167.23 52.81,166.83 52.28,166.42 C51.76,166.00 51.26,165.55 50.73,165.14 C50.21,164.73 49.71,164.22 49.12,163.96 C48.53,163.69 47.81,163.45 47.20,163.54 Z M32.25,108.02 C31.32,108.98 31.31,111.07 31.30,112.64 C31.28,114.21 31.80,115.86 32.15,117.45 C32.50,119.04 32.93,120.62 33.42,122.17 C33.90,123.73 34.47,125.26 35.07,126.77 C35.68,128.28 36.35,129.77 37.06,131.24 C37.77,132.70 38.84,134.14 39.32,135.57 C39.81,137.00 40.55,139.50 39.94,139.83 C39.34,140.16 37.04,138.45 35.71,137.54 C34.38,136.64 33.15,135.52 31.97,134.40 C30.79,133.28 29.70,132.06 28.65,130.81 C27.61,129.57 26.64,128.25 25.68,126.93 C24.73,125.61 23.83,124.25 22.94,122.89 C22.05,121.52 21.27,120.08 20.35,118.74 C19.43,117.40 18.53,116.01 17.43,114.83 C16.32,113.65 15.11,112.39 13.72,111.66 C12.34,110.93 10.18,109.95 9.13,110.44 C8.08,110.93 7.60,113.10 7.43,114.59 C7.27,116.09 7.85,117.83 8.14,119.43 C8.43,121.03 8.79,122.62 9.18,124.20 C9.57,125.79 10.00,127.36 10.48,128.92 C10.95,130.48 11.46,132.03 12.02,133.56 C12.58,135.08 13.20,136.60 13.85,138.09 C14.50,139.58 15.19,141.06 15.92,142.52 C16.64,143.98 17.39,145.43 18.18,146.85 C18.98,148.27 19.81,149.68 20.67,151.06 C21.53,152.44 22.41,153.82 23.37,155.14 C24.33,156.45 25.19,158.04 26.42,158.95 C27.65,159.85 29.37,160.77 30.76,160.59 C32.15,160.41 33.71,159.02 34.76,157.87 C35.81,156.72 36.92,155.14 37.05,153.67 C37.19,152.21 35.36,150.00 35.58,149.08 C35.80,148.16 37.18,147.93 38.37,148.15 C39.56,148.36 41.25,149.68 42.72,150.39 C44.18,151.10 45.67,151.78 47.16,152.42 C48.66,153.05 50.21,153.59 51.71,154.22 C53.21,154.86 54.73,155.47 56.16,156.24 C57.59,157.01 58.92,157.97 60.29,158.85 C61.66,159.72 63.00,160.66 64.39,161.50 C65.79,162.34 67.21,163.14 68.66,163.89 C70.11,164.63 71.58,165.34 73.07,165.99 C74.56,166.64 76.08,167.26 77.61,167.80 C79.15,168.35 80.71,168.84 82.28,169.26 C83.85,169.68 85.45,170.19 87.05,170.32 C88.64,170.46 90.73,170.84 91.84,170.08 C92.94,169.32 93.45,167.31 93.67,165.79 C93.90,164.27 93.86,162.27 93.19,160.96 C92.52,159.64 91.02,158.62 89.65,157.90 C88.27,157.17 86.49,157.09 84.93,156.61 C83.38,156.13 81.82,155.63 80.31,155.03 C78.80,154.42 77.33,153.71 75.87,152.99 C74.40,152.27 72.95,151.53 71.54,150.70 C70.14,149.88 68.77,148.98 67.45,148.03 C66.13,147.08 64.86,146.05 63.63,144.99 C62.39,143.93 61.21,142.80 60.06,141.65 C58.91,140.49 57.80,139.30 56.74,138.06 C55.68,136.82 54.67,135.54 53.73,134.21 C52.78,132.89 51.92,131.50 51.09,130.10 C50.27,128.69 49.48,127.26 48.77,125.80 C48.06,124.33 47.41,122.83 46.83,121.31 C46.26,119.79 45.79,118.22 45.33,116.66 C44.87,115.10 44.68,113.41 44.06,111.94 C43.45,110.46 42.83,108.67 41.63,107.82 C40.44,106.98 38.47,106.83 36.90,106.86 C35.34,106.90 33.19,107.06 32.25,108.02 Z M182.07,106.34 C181.58,106.69 181.26,107.40 181.04,108.01 C180.83,108.61 180.85,109.32 180.77,109.98 C180.68,110.64 180.61,111.30 180.54,111.96 C180.48,112.62 180.45,113.29 180.37,113.95 C180.29,114.61 180.21,115.27 180.05,115.91 C179.89,116.56 179.60,117.17 179.42,117.80 C179.23,118.44 179.10,119.10 178.95,119.74 C178.79,120.39 178.65,121.04 178.49,121.69 C178.32,122.33 178.16,122.98 177.97,123.61 C177.78,124.25 177.56,124.88 177.34,125.50 C177.12,126.13 176.86,126.75 176.63,127.37 C176.39,127.99 176.17,128.62 175.93,129.24 C175.69,129.86 175.45,130.48 175.20,131.10 C174.96,131.71 174.72,132.34 174.46,132.95 C174.20,133.56 173.93,134.17 173.66,134.77 C173.38,135.38 173.12,135.99 172.83,136.59 C172.54,137.19 172.24,137.78 171.91,138.36 C171.58,138.94 171.20,139.48 170.86,140.06 C170.53,140.63 170.22,141.22 169.90,141.80 C169.58,142.38 169.26,142.97 168.92,143.54 C168.59,144.12 168.25,144.69 167.89,145.25 C167.53,145.81 167.15,146.36 166.77,146.90 C166.40,147.45 166.01,147.99 165.62,148.53 C165.24,149.08 164.69,149.57 164.47,150.16 C164.25,150.75 164.15,151.49 164.31,152.08 C164.48,152.67 165.03,153.20 165.47,153.69 C165.91,154.18 166.45,154.59 166.95,155.03 C167.45,155.47 167.95,155.90 168.46,156.33 C168.97,156.76 169.45,157.23 169.99,157.60 C170.54,157.98 171.11,158.45 171.72,158.60 C172.32,158.75 173.07,158.76 173.62,158.51 C174.17,158.25 174.57,157.58 175.00,157.07 C175.43,156.57 175.80,156.01 176.18,155.47 C176.56,154.92 176.89,154.34 177.27,153.80 C177.65,153.25 178.04,152.72 178.44,152.18 C178.83,151.65 179.26,151.14 179.64,150.59 C180.02,150.04 180.35,149.46 180.69,148.90 C181.04,148.33 181.38,147.76 181.72,147.18 C182.06,146.61 182.40,146.04 182.72,145.45 C183.03,144.87 183.32,144.27 183.60,143.67 C183.88,143.07 184.11,142.44 184.41,141.84 C184.70,141.25 185.07,140.69 185.37,140.10 C185.67,139.50 185.96,138.90 186.23,138.30 C186.50,137.69 186.73,137.06 186.97,136.44 C187.21,135.82 187.43,135.20 187.67,134.57 C187.90,133.95 188.15,133.34 188.38,132.71 C188.61,132.08 188.82,131.45 189.03,130.82 C189.24,130.19 189.45,129.56 189.65,128.93 C189.86,128.30 190.07,127.67 190.26,127.03 C190.45,126.39 190.62,125.75 190.79,125.10 C190.95,124.46 191.11,123.81 191.27,123.17 C191.43,122.52 191.58,121.87 191.72,121.22 C191.86,120.58 191.99,119.92 192.12,119.27 C192.25,118.62 192.38,117.96 192.49,117.31 C192.59,116.65 192.66,115.99 192.75,115.33 C192.83,114.67 192.93,114.01 193.02,113.35 C193.10,112.69 193.26,112.03 193.27,111.37 C193.27,110.72 193.33,109.96 193.06,109.42 C192.78,108.87 192.15,108.46 191.61,108.11 C191.06,107.75 190.40,107.54 189.79,107.29 C189.17,107.04 188.54,106.82 187.90,106.63 C187.27,106.44 186.62,106.28 185.97,106.16 C185.31,106.04 184.64,105.88 183.99,105.91 C183.34,105.94 182.56,105.99 182.07,106.34 Z M162.25,105.43 C160.71,105.69 158.91,106.34 157.88,107.42 C156.84,108.50 156.55,110.39 156.03,111.93 C155.52,113.47 155.26,115.12 154.78,116.69 C154.30,118.25 153.76,119.80 153.17,121.33 C152.58,122.86 151.96,124.39 151.25,125.86 C150.53,127.33 149.74,128.77 148.90,130.18 C148.06,131.58 147.17,132.97 146.21,134.30 C145.24,135.62 144.21,136.90 143.13,138.13 C142.05,139.36 140.90,140.54 139.73,141.69 C138.56,142.83 137.36,143.95 136.10,145.00 C134.84,146.05 133.52,147.03 132.17,147.97 C130.83,148.90 129.44,149.78 128.02,150.59 C126.59,151.40 125.12,152.13 123.63,152.82 C122.14,153.51 120.63,154.14 119.09,154.71 C117.56,155.29 115.96,155.70 114.42,156.26 C112.89,156.83 110.99,157.10 109.89,158.12 C108.79,159.14 108.06,160.87 107.80,162.39 C107.54,163.91 107.58,166.06 108.32,167.24 C109.07,168.43 110.79,169.26 112.25,169.49 C113.71,169.73 115.50,169.05 117.09,168.68 C118.68,168.30 120.25,167.79 121.80,167.26 C123.35,166.73 124.87,166.12 126.39,165.50 C127.90,164.87 129.40,164.19 130.89,163.50 C132.37,162.82 134.27,161.42 135.32,161.37 C136.37,161.33 137.37,162.25 137.20,163.23 C137.04,164.20 135.36,165.94 134.34,167.22 C133.31,168.50 132.20,169.71 131.07,170.90 C129.94,172.08 128.79,173.26 127.57,174.35 C126.36,175.45 125.07,176.47 123.78,177.48 C122.49,178.49 121.11,179.40 119.84,180.43 C118.58,181.47 117.27,182.50 116.17,183.69 C115.06,184.89 113.82,186.18 113.22,187.61 C112.62,189.04 111.91,191.36 112.56,192.29 C113.21,193.22 115.57,193.20 117.13,193.20 C118.70,193.19 120.36,192.61 121.95,192.24 C123.55,191.86 125.13,191.41 126.70,190.94 C128.27,190.47 129.84,190.00 131.38,189.44 C132.92,188.88 134.45,188.27 135.94,187.60 C137.44,186.92 138.88,186.15 140.35,185.41 C141.81,184.68 143.29,183.96 144.73,183.18 C146.18,182.40 147.61,181.60 149.00,180.74 C150.40,179.89 151.76,178.97 153.11,178.03 C154.45,177.10 155.82,176.17 157.08,175.14 C158.35,174.10 159.99,173.12 160.71,171.82 C161.43,170.53 161.85,168.69 161.40,167.36 C160.95,166.03 159.33,164.66 158.01,163.84 C156.69,163.03 154.93,162.28 153.47,162.46 C152.01,162.63 150.65,164.08 149.25,164.92 C147.86,165.75 145.72,167.71 145.10,167.48 C144.48,167.26 145.04,164.92 145.51,163.54 C145.97,162.17 147.14,160.70 147.90,159.25 C148.65,157.79 149.36,156.31 150.04,154.82 C150.72,153.33 151.33,151.80 151.99,150.30 C152.65,148.80 153.25,147.26 154.03,145.82 C154.80,144.39 155.77,143.05 156.67,141.68 C157.57,140.31 158.55,139.00 159.42,137.61 C160.29,136.22 161.10,134.78 161.88,133.34 C162.65,131.90 163.42,130.44 164.09,128.95 C164.75,127.45 165.34,125.92 165.88,124.37 C166.42,122.82 166.93,121.26 167.34,119.67 C167.75,118.09 168.09,116.48 168.36,114.86 C168.64,113.25 169.21,111.49 169.00,109.99 C168.79,108.49 168.23,106.62 167.10,105.86 C165.97,105.10 163.78,105.17 162.25,105.43 Z M29.36,38.39 C28.77,38.47 28.18,38.98 27.68,39.40 C27.18,39.82 26.79,40.39 26.38,40.91 C25.96,41.43 25.58,41.98 25.18,42.51 C24.78,43.04 24.36,43.56 23.96,44.09 C23.56,44.62 23.16,45.15 22.78,45.70 C22.39,46.24 22.01,46.78 21.64,47.34 C21.27,47.89 20.94,48.46 20.58,49.03 C20.23,49.59 19.87,50.15 19.52,50.72 C19.18,51.29 18.85,51.87 18.51,52.44 C18.18,53.02 17.84,53.59 17.52,54.17 C17.20,54.75 16.89,55.34 16.58,55.93 C16.28,56.52 15.98,57.12 15.69,57.72 C15.41,58.32 15.14,58.93 14.87,59.54 C14.60,60.15 14.34,60.76 14.07,61.37 C13.80,61.97 13.51,62.57 13.25,63.19 C12.99,63.80 12.75,64.42 12.51,65.04 C12.28,65.66 12.07,66.29 11.85,66.92 C11.63,67.55 11.43,68.19 11.22,68.82 C11.00,69.45 10.79,70.08 10.58,70.71 C10.37,71.34 10.17,71.97 9.98,72.61 C9.79,73.25 9.63,73.90 9.46,74.54 C9.30,75.18 9.14,75.83 8.98,76.48 C8.82,77.12 8.65,77.77 8.51,78.41 C8.36,79.06 8.22,79.71 8.10,80.37 C7.99,81.02 7.85,81.68 7.80,82.34 C7.74,83.00 7.66,83.69 7.78,84.33 C7.90,84.97 8.18,85.61 8.52,86.17 C8.86,86.73 9.33,87.22 9.80,87.69 C10.28,88.15 10.82,88.55 11.35,88.95 C11.89,89.34 12.43,89.73 13.01,90.06 C13.59,90.38 14.21,90.64 14.83,90.87 C15.45,91.11 16.08,91.36 16.73,91.47 C17.37,91.58 18.18,91.77 18.70,91.53 C19.22,91.28 19.59,90.58 19.82,90.00 C20.05,89.41 19.98,88.68 20.08,88.02 C20.17,87.36 20.27,86.70 20.38,86.05 C20.49,85.39 20.61,84.74 20.74,84.08 C20.86,83.43 20.99,82.78 21.13,82.13 C21.26,81.47 21.40,80.82 21.55,80.18 C21.70,79.53 21.85,78.88 22.03,78.24 C22.20,77.59 22.38,76.96 22.58,76.32 C22.77,75.68 22.99,75.06 23.20,74.42 C23.41,73.79 23.63,73.16 23.84,72.53 C24.05,71.90 24.26,71.27 24.49,70.64 C24.72,70.02 24.97,69.40 25.22,68.79 C25.47,68.17 25.74,67.56 26.01,66.95 C26.27,66.35 26.55,65.74 26.83,65.14 C27.12,64.54 27.42,63.94 27.72,63.35 C28.02,62.75 28.31,62.16 28.62,61.57 C28.92,60.97 29.22,60.38 29.53,59.79 C29.85,59.21 30.19,58.64 30.52,58.06 C30.85,57.48 31.17,56.90 31.51,56.33 C31.86,55.76 32.22,55.20 32.58,54.64 C32.95,54.08 33.32,53.53 33.69,52.98 C34.06,52.43 34.43,51.88 34.81,51.33 C35.18,50.78 35.55,50.23 35.94,49.68 C36.33,49.14 36.82,48.65 37.12,48.08 C37.43,47.50 37.81,46.84 37.78,46.23 C37.76,45.63 37.34,44.99 36.98,44.45 C36.62,43.91 36.08,43.47 35.62,43.00 C35.15,42.52 34.68,42.05 34.20,41.59 C33.73,41.12 33.27,40.63 32.78,40.19 C32.29,39.74 31.81,39.22 31.24,38.92 C30.67,38.62 29.95,38.31 29.36,38.39 Z M107.50,30.51 C106.50,31.41 106.28,33.56 106.21,35.13 C106.14,36.69 106.27,38.67 107.09,39.90 C107.90,41.13 109.64,41.84 111.10,42.49 C112.55,43.15 114.26,43.34 115.81,43.85 C117.37,44.35 118.91,44.90 120.43,45.51 C121.94,46.12 123.44,46.78 124.90,47.52 C126.36,48.25 127.80,49.04 129.18,49.90 C130.57,50.76 131.91,51.71 133.21,52.70 C134.51,53.69 135.76,54.74 136.98,55.83 C138.20,56.92 139.37,58.07 140.51,59.24 C141.64,60.41 142.76,61.61 143.80,62.87 C144.84,64.13 145.82,65.45 146.73,66.80 C147.65,68.15 148.49,69.56 149.30,70.98 C150.10,72.40 150.88,73.85 151.56,75.33 C152.25,76.81 152.86,78.34 153.41,79.87 C153.95,81.41 154.39,82.99 154.85,84.56 C155.31,86.13 155.43,87.90 156.16,89.29 C156.88,90.68 157.88,92.22 159.19,92.90 C160.51,93.59 162.53,93.64 164.04,93.40 C165.56,93.16 167.55,92.59 168.28,91.46 C169.01,90.33 168.55,88.23 168.41,86.62 C168.26,85.01 167.81,83.40 167.42,81.82 C167.03,80.23 166.55,78.66 166.04,77.11 C165.52,75.56 164.96,74.03 164.34,72.51 C163.72,71.00 162.84,69.54 162.34,68.04 C161.84,66.53 160.81,63.89 161.35,63.50 C161.88,63.11 164.23,64.79 165.54,65.70 C166.84,66.61 168.03,67.82 169.20,68.96 C170.37,70.10 171.49,71.30 172.56,72.53 C173.64,73.76 174.67,75.03 175.66,76.33 C176.65,77.63 177.56,78.99 178.52,80.32 C179.47,81.64 180.35,83.04 181.41,84.27 C182.48,85.51 183.58,86.79 184.89,87.72 C186.19,88.65 187.97,89.96 189.24,89.88 C190.51,89.80 192.02,88.51 192.49,87.26 C192.96,86.01 192.30,84.00 192.06,82.39 C191.82,80.78 191.42,79.18 191.06,77.59 C190.69,75.99 190.30,74.40 189.85,72.83 C189.40,71.26 188.91,69.70 188.36,68.16 C187.81,66.62 187.18,65.11 186.56,63.60 C185.93,62.09 185.30,60.58 184.61,59.10 C183.92,57.62 183.18,56.16 182.41,54.72 C181.64,53.27 180.82,51.86 179.98,50.46 C179.13,49.06 178.27,47.66 177.34,46.32 C176.42,44.98 175.53,43.55 174.41,42.39 C173.30,41.23 172.00,39.55 170.66,39.36 C169.31,39.17 167.55,40.28 166.33,41.23 C165.11,42.19 163.73,43.66 163.33,45.07 C162.93,46.49 163.41,48.25 163.94,49.72 C164.47,51.20 166.41,52.90 166.50,53.90 C166.59,54.91 165.51,55.87 164.47,55.76 C163.43,55.64 161.69,54.04 160.28,53.21 C158.87,52.38 157.47,51.54 156.02,50.78 C154.57,50.03 153.06,49.40 151.58,48.70 C150.11,47.99 148.59,47.35 147.18,46.54 C145.76,45.73 144.43,44.77 143.09,43.83 C141.75,42.90 140.49,41.85 139.15,40.92 C137.80,39.99 136.42,39.11 135.02,38.27 C133.62,37.43 132.19,36.63 130.73,35.89 C129.27,35.16 127.78,34.49 126.27,33.86 C124.76,33.22 123.24,32.62 121.70,32.09 C120.15,31.56 118.58,31.09 116.99,30.70 C115.41,30.31 113.77,29.77 112.19,29.74 C110.60,29.71 108.50,29.62 107.50,30.51 Z M111.80,5.76 C111.22,6.00 110.74,6.57 110.33,7.08 C109.93,7.60 109.66,8.24 109.39,8.85 C109.11,9.46 108.90,10.09 108.69,10.73 C108.48,11.36 108.30,12.01 108.15,12.66 C107.99,13.31 107.79,13.97 107.74,14.62 C107.69,15.28 107.57,16.08 107.85,16.60 C108.13,17.11 108.84,17.47 109.43,17.72 C110.02,17.97 110.74,17.96 111.40,18.08 C112.06,18.19 112.72,18.30 113.38,18.43 C114.04,18.55 114.69,18.68 115.34,18.82 C116.00,18.96 116.65,19.11 117.30,19.26 C117.95,19.41 118.60,19.58 119.25,19.74 C119.90,19.90 120.55,20.06 121.19,20.24 C121.84,20.43 122.48,20.62 123.11,20.83 C123.75,21.03 124.38,21.24 125.01,21.46 C125.65,21.68 126.27,21.92 126.90,22.16 C127.52,22.40 128.14,22.65 128.76,22.90 C129.38,23.15 130.01,23.39 130.62,23.65 C131.24,23.91 131.84,24.19 132.45,24.48 C133.05,24.77 133.64,25.08 134.24,25.38 C134.84,25.68 135.44,25.97 136.04,26.27 C136.64,26.57 137.24,26.87 137.83,27.18 C138.42,27.49 139.00,27.82 139.58,28.15 C140.16,28.49 140.73,28.83 141.30,29.19 C141.87,29.54 142.43,29.91 142.99,30.27 C143.55,30.64 144.10,31.01 144.66,31.39 C145.21,31.76 145.77,32.13 146.31,32.52 C146.86,32.91 147.39,33.31 147.92,33.72 C148.45,34.12 148.97,34.55 149.50,34.96 C150.03,35.37 150.52,35.89 151.10,36.16 C151.69,36.43 152.43,36.71 152.99,36.56 C153.55,36.41 154.01,35.71 154.47,35.24 C154.94,34.77 155.34,34.22 155.79,33.73 C156.25,33.24 156.73,32.78 157.21,32.31 C157.68,31.83 158.17,31.38 158.63,30.90 C159.09,30.41 159.71,29.97 159.97,29.40 C160.22,28.84 160.36,28.07 160.18,27.50 C160.00,26.93 159.37,26.45 158.89,25.99 C158.41,25.54 157.82,25.18 157.29,24.77 C156.77,24.36 156.25,23.94 155.73,23.52 C155.20,23.10 154.70,22.67 154.17,22.25 C153.64,21.84 153.10,21.45 152.57,21.05 C152.03,20.65 151.48,20.26 150.93,19.88 C150.39,19.50 149.83,19.13 149.27,18.76 C148.71,18.39 148.15,18.03 147.58,17.68 C147.01,17.34 146.42,17.02 145.84,16.69 C145.26,16.36 144.68,16.01 144.09,15.69 C143.51,15.37 142.91,15.07 142.31,14.77 C141.72,14.47 141.12,14.17 140.52,13.87 C139.92,13.58 139.32,13.28 138.71,13.00 C138.10,12.72 137.48,12.47 136.87,12.21 C136.26,11.94 135.65,11.67 135.03,11.41 C134.41,11.15 133.79,10.89 133.17,10.65 C132.55,10.41 131.91,10.20 131.28,9.98 C130.65,9.76 130.01,9.55 129.38,9.34 C128.74,9.13 128.11,8.92 127.47,8.72 C126.83,8.52 126.19,8.34 125.55,8.15 C124.90,7.96 124.26,7.77 123.62,7.60 C122.97,7.42 122.32,7.26 121.67,7.11 C121.02,6.96 120.36,6.83 119.71,6.68 C119.06,6.54 118.41,6.39 117.75,6.26 C117.09,6.13 116.43,6.02 115.77,5.92 C115.11,5.82 114.45,5.68 113.79,5.65 C113.12,5.62 112.37,5.52 111.80,5.76 Z M90.16,6.08 C89.28,5.29 86.93,5.76 85.31,5.87 C83.70,5.98 82.07,6.40 80.46,6.74 C78.85,7.08 77.25,7.47 75.67,7.90 C74.08,8.33 72.51,8.81 70.95,9.33 C69.39,9.85 67.85,10.42 66.32,11.02 C64.79,11.62 63.27,12.25 61.77,12.92 C60.26,13.58 58.76,14.26 57.30,15.01 C55.84,15.76 54.42,16.58 53.01,17.44 C51.61,18.29 50.24,19.21 48.89,20.14 C47.53,21.07 46.16,21.98 44.88,23.01 C43.60,24.04 41.85,25.00 41.23,26.31 C40.60,27.61 40.59,29.50 41.13,30.85 C41.67,32.20 43.16,33.71 44.49,34.42 C45.82,35.14 47.64,35.45 49.11,35.15 C50.58,34.84 51.94,33.49 53.32,32.61 C54.71,31.73 56.00,30.68 57.41,29.86 C58.83,29.03 60.98,27.47 61.80,27.65 C62.62,27.83 62.71,29.71 62.32,30.93 C61.94,32.15 60.42,33.61 59.51,34.98 C58.59,36.34 57.69,37.72 56.82,39.11 C55.95,40.51 55.15,41.95 54.30,43.35 C53.45,44.76 52.64,46.20 51.71,47.55 C50.78,48.90 49.74,50.18 48.72,51.47 C47.71,52.76 46.62,53.99 45.60,55.29 C44.59,56.58 43.58,57.88 42.65,59.24 C41.72,60.59 40.85,61.99 40.00,63.39 C39.15,64.80 38.32,66.22 37.56,67.68 C36.81,69.14 36.10,70.63 35.47,72.14 C34.85,73.66 34.30,75.21 33.79,76.78 C33.29,78.34 32.84,79.93 32.45,81.52 C32.06,83.12 31.60,84.74 31.47,86.35 C31.34,87.97 30.93,90.04 31.65,91.21 C32.37,92.39 34.29,93.09 35.79,93.37 C37.30,93.66 39.34,93.59 40.67,92.92 C41.99,92.24 43.02,90.72 43.75,89.33 C44.47,87.94 44.56,86.14 45.02,84.57 C45.49,82.99 45.95,81.41 46.52,79.87 C47.08,78.33 47.71,76.80 48.39,75.31 C49.07,73.82 49.80,72.34 50.60,70.91 C51.41,69.47 52.27,68.07 53.20,66.71 C54.13,65.36 55.13,64.05 56.18,62.79 C57.23,61.52 58.35,60.32 59.50,59.14 C60.65,57.97 61.83,56.82 63.05,55.73 C64.28,54.63 65.54,53.57 66.85,52.59 C68.17,51.60 69.54,50.69 70.94,49.83 C72.33,48.97 73.77,48.16 75.23,47.41 C76.69,46.66 78.18,45.94 79.71,45.34 C81.23,44.73 82.81,44.25 84.37,43.75 C85.94,43.26 87.72,43.13 89.11,42.39 C90.50,41.65 92.03,40.62 92.72,39.29 C93.40,37.97 93.46,35.94 93.21,34.42 C92.96,32.90 92.35,30.91 91.21,30.18 C90.06,29.45 87.96,29.88 86.35,30.04 C84.74,30.20 83.13,30.71 81.55,31.16 C79.97,31.60 78.43,32.18 76.87,32.72 C75.32,33.25 73.27,34.48 72.22,34.35 C71.17,34.23 70.31,32.98 70.57,31.96 C70.84,30.95 72.68,29.44 73.82,28.26 C74.96,27.07 76.17,25.95 77.40,24.86 C78.62,23.77 79.92,22.76 81.19,21.72 C82.46,20.67 83.81,19.72 85.01,18.59 C86.20,17.47 87.41,16.31 88.35,14.98 C89.29,13.66 90.34,12.13 90.65,10.64 C90.95,9.16 91.05,6.88 90.16,6.08 Z" fill="#4d5c6b" mask="url(#h1)"/><path d="M144.53,103.90 L144.29,106.75 L143.86,109.60 L143.25,112.41 L142.46,115.19 L141.49,117.92 L140.35,120.58 L139.03,123.18 L137.55,125.69 L135.90,128.10 L134.10,130.41 L132.16,132.60 L130.07,134.67 L127.85,136.60 L125.50,138.39 L123.04,140.03 L120.47,141.51 L117.81,142.83 L115.06,143.98 L112.24,144.95 L109.36,145.73 L106.42,146.34 L103.45,146.75 L100.45,146.98 L97.43,147.01 L94.42,146.85 L91.41,146.49 L88.43,145.94 L85.48,145.20 L82.58,144.27 L79.73,143.15 L76.96,141.85 L74.28,140.38 L71.69,138.72 L69.20,136.91 L66.83,134.93 L64.59,132.80 L62.49,130.53 L60.53,128.12 L58.72,125.59 L57.08,122.94 L55.61,120.19 L54.31,117.34 L53.20,114.40 L52.28,111.40 L51.55,108.34 L51.02,105.23 L50.68,102.09 L50.55,98.92 L50.62,95.75 L50.90,92.58 L51.38,89.43 L52.06,86.31 L52.94,83.23 L54.02,80.22 L55.29,77.27 L56.76,74.40 L58.40,71.63 L60.23,68.96 L62.22,66.41 L64.38,63.99 L66.70,61.71 L69.16,59.58 L71.75,57.60 L74.48,55.79 L82.68,69.99 L80.73,71.08 L78.86,72.30 L77.07,73.63 L75.36,75.08 L73.74,76.65 L72.22,78.32 L70.80,80.09 L69.50,81.95 L68.32,83.89 L67.26,85.91 L66.33,88.01 L65.54,90.16 L64.88,92.37 L64.37,94.62 L64.00,96.90 L63.77,99.21 L63.70,101.54 L63.77,103.87 L64.00,106.20 L64.37,108.51 L64.89,110.81 L65.57,113.07 L66.38,115.29 L67.34,117.46 L68.44,119.56 L69.68,121.60 L71.05,123.56 L72.55,125.43 L74.16,127.21 L75.89,128.89 L77.74,130.45 L79.68,131.90 L81.72,133.22 L83.84,134.41 L86.04,135.47 L88.31,136.39 L90.64,137.16 L93.02,137.78 L95.44,138.25 L97.89,138.56 L100.37,138.71 L102.86,138.71 L105.34,138.54 L107.82,138.22 L110.28,137.74 L112.70,137.09 L115.09,136.30 L117.43,135.34 L119.71,134.24 L121.91,132.99 L124.04,131.60 L126.08,130.07 L128.02,128.41 L129.86,126.62 L131.58,124.72 L133.18,122.70 L134.65,120.58 L135.99,118.36 L137.18,116.06 L138.23,113.68 L139.12,111.23 L139.85,108.72 L140.43,106.17 L140.84,103.57Z" fill="#22b673"/><circle cx="100" cy="100" r="26.4" fill="#22b673"/></svg>